<svg id="Layer_1" data-name="Layer 1" xmlns="http://www.w3.org/2000/svg" viewBox="0 0 25 25"><defs><style>.cls-1{fill:#d6d6d6;}</style></defs><path class="cls-1" d="M25,1.39h0a1.86,1.86,0,0,0-.24-.54l0-.06,0,0L24.57.66l0,0s0,0,0,0l-.05,0s0,0-.05-.05l0,0-.06,0-.05,0h0L24.12.27h0l-.05,0L23.92.16l-.05,0L23.65.06A2,2,0,0,0,23.16,0H1.84a2,2,0,0,0-.49.06,1.86,1.86,0,0,0-.9.57l0,0a2.11,2.11,0,0,0-.26.4v0l-.09.25A1.86,1.86,0,0,0,0,1.84V23.16a1.86,1.86,0,0,0,.06.48,1.92,1.92,0,0,0,.5.85l.07.06a1.82,1.82,0,0,0,.41.27l0,0h0l0,0h0l0,0,.13,0,.05,0h0a1.75,1.75,0,0,0,.4.05H23.21a1.5,1.5,0,0,0,.37-.05h0a1.63,1.63,0,0,0,.53-.21h0a1.72,1.72,0,0,0,.59-.58v0a1.73,1.73,0,0,0,.22-.5h0a1.7,1.7,0,0,0,.06-.46V1.84A2.22,2.22,0,0,0,25,1.39ZM20,8.22a8.09,8.09,0,0,1-.93,1,.72.72,0,0,0-.28.57,9.29,9.29,0,0,1-2.1,5.92,8.56,8.56,0,0,1-5.56,3.18,9.14,9.14,0,0,1-5.91-1c-.17-.09-.33-.2-.49-.3l0-.09a6.56,6.56,0,0,0,4.48-1.2A1.38,1.38,0,0,0,9,16.15a3.21,3.21,0,0,1-2.45-1.91c0-.09-.06-.2-.11-.34H7.61a3.61,3.61,0,0,1-2-1.8,2.32,2.32,0,0,1-.25-1.43A3.25,3.25,0,0,0,6.56,11,3.31,3.31,0,0,1,5.35,8.38a3,3,0,0,1,.49-1.64,9.17,9.17,0,0,0,6.48,3.35,1.67,1.67,0,0,0,0-.3,3.24,3.24,0,0,1,2.39-3.52A3.16,3.16,0,0,1,17.68,7a.56.56,0,0,0,.62.13c.43-.17.87-.33,1.3-.51A3.53,3.53,0,0,0,20,6.4a2.72,2.72,0,0,1-1.26,1.69,7.69,7.69,0,0,0,1.62-.39A1.83,1.83,0,0,1,20,8.22Z"/></svg>