<svg id="Layer_1" data-name="Layer 1" xmlns="http://www.w3.org/2000/svg" xmlns:xlink="http://www.w3.org/1999/xlink" viewBox="0 0 24.87 24.87"><defs><style>.cls-1{fill:none;}.cls-2{clip-path:url(#clip-path);}.cls-3{fill:#d6d6d6;}</style><clipPath id="clip-path"><path class="cls-1" d="M24.87,0V24.85H13.8s0-6.86,0-8.24a.23.23,0,0,1,.24-.24h2.39a.27.27,0,0,0,.25-.22c.14-1,.31-2.06.46-3.09,0-.26,0-.26-.21-.26H14a.21.21,0,0,1-.22-.23v-2a2.76,2.76,0,0,1,0-.51,1.62,1.62,0,0,1,1.47-1.36c.33,0,.66,0,1,0h.85c.1,0,.15,0,.15-.14,0-.92,0-1.85,0-2.77l-.1-.12a11.13,11.13,0,0,0-3.86-.11,4,4,0,0,0-3.29,3.54,7.16,7.16,0,0,0-.09,1c0,.82,0,1.64,0,2.46a.27.27,0,0,1-.27.27H7.09c-.15,0-.21,0-.21.21v3.14a.21.21,0,0,0,.21.22H9.77a.21.21,0,0,1,.21.21v8.28H0C0,18.14,0,6.4,0,0Z"/></clipPath></defs><g class="cls-2"><rect class="cls-3" width="24.87" height="24.87" rx="1.84"/></g></svg>