<svg id="Layer_1" data-name="Layer 1" xmlns="http://www.w3.org/2000/svg" xmlns:xlink="http://www.w3.org/1999/xlink" viewBox="0 0 24.87 24.87"><defs><style>.cls-1{fill:none;}.cls-2{clip-path:url(#clip-path);}.cls-3{fill:#d6d6d6;}</style><clipPath id="clip-path"><path id="fE6AxZ.tif" class="cls-1" d="M24.87,0H0C0,6.2,0,18.62,0,24.85c6.48,0,19.19,0,24.87,0ZM21.59,15.62a8.34,8.34,0,0,1-.3,2.39,4.68,4.68,0,0,1-3.88,3.42,11.08,11.08,0,0,1-1.81.17c-1.06,0-5.8,0-7.1,0a5.45,5.45,0,0,1-3-.87,4.81,4.81,0,0,1-2.1-3.28c-.16-.88-.17-6.32-.15-8.16A8.32,8.32,0,0,1,3.6,6.83,4.73,4.73,0,0,1,7.48,3.44a16.49,16.49,0,0,1,3.06-.17c1.67,0,3.34,0,5,0a8.91,8.91,0,0,1,2.36.27,4.72,4.72,0,0,1,3.53,3.93,14.53,14.53,0,0,1,.18,2.64C21.62,12,21.6,13.79,21.59,15.62ZM20,10c0-.72,0-1.44-.13-2.15A3.08,3.08,0,0,0,17.23,5.1a10.77,10.77,0,0,0-1.88-.17H9.52a11.77,11.77,0,0,0-1.68.13A3.07,3.07,0,0,0,5.1,7.64,10.55,10.55,0,0,0,4.93,9.5c0,1.95,0,3.9,0,5.86a10,10,0,0,0,.17,1.81,3,3,0,0,0,2.49,2.6,7.2,7.2,0,0,0,1.31.15c2.13,0,4.26,0,6.4,0a11.66,11.66,0,0,0,1.86-.15,3,3,0,0,0,2.59-2.42,7.11,7.11,0,0,0,.16-1.3C20,14.87,20,10.83,20,10Zm-7.52,7.13a4.71,4.71,0,1,1,4.72-4.71A4.69,4.69,0,0,1,12.43,17.16Zm4.91-8.52a1.1,1.1,0,1,1,1.1-1.09A1.09,1.09,0,0,1,17.34,8.64ZM15.5,12.46a3.06,3.06,0,1,1-3-3.08A3.06,3.06,0,0,1,15.5,12.46Z"/></clipPath></defs><g class="cls-2"><rect class="cls-3" width="24.87" height="24.87" rx="1.84"/></g></svg>