<svg xmlns="http://www.w3.org/2000/svg" xmlns:xlink="http://www.w3.org/1999/xlink" width="96" height="90.47" viewBox="0 0 96 90.47">
  <defs>
    <clipPath id="clip-path2">
      <rect id="Rectangle_214" data-name="Rectangle 214" width="96" height="90.47" fill="#000"></rect>
    </clipPath>
  </defs>
  <g id="Group_198" data-name="Group 198" transform="translate(0 1)">
    <g id="Group_153" data-name="Group 153" transform="translate(0 -1)" clip-path="url(#clip-path2)">
      <path id="Path_53" data-name="Path 53" d="M290.708,52a11.258,11.258,0,0,1,2.449,2.364.275.275,0,0,0,.413.026l12.459-12.473a.262.262,0,0,0,0-.369l-2.368-2.368a.424.424,0,0,0-.6,0l-12.388,12.4a.275.275,0,0,0,.034.419" transform="translate(-236.272 -31.756)" fill="#000"></path>
      <path id="Path_54" data-name="Path 54" d="M108.483,90.388l16.357,6.866a.275.275,0,0,0,.373-.183,11.13,11.13,0,0,1,1.345-3.123.275.275,0,0,0-.128-.4L110.2,86.731a.424.424,0,0,0-.555.227l-1.3,3.088a.262.262,0,0,0,.139.342" transform="translate(-88.074 -70.492)" fill="#000"></path>
      <path id="Path_55" data-name="Path 55" d="M276.245,145.389l-30.692,0a.261.261,0,0,0-.261.261v3.512a.262.262,0,0,0,.262.261l30.692,0a.261.261,0,0,0,.261-.261V145.65a.262.262,0,0,0-.262-.261" transform="translate(-199.439 -118.208)" fill="#000"></path>
      <path id="Path_56" data-name="Path 56" d="M151.55,54.5a.275.275,0,0,0,.414-.029,11.258,11.258,0,0,1,2.4-2.372.275.275,0,0,0,.032-.416l-12.474-12.5a.424.424,0,0,0-.6,0l-2.253,2.253a.424.424,0,0,0,0,.6Z" transform="translate(-112.969 -31.756)" fill="#000"></path>
      <path id="Path_57" data-name="Path 57" d="M269.55,25.55a11.127,11.127,0,0,1,3.126,1.264.275.275,0,0,0,.393-.131L279.926,10.4a.261.261,0,0,0-.139-.342L276.549,8.7a.26.26,0,0,0-.341.139l-6.846,16.338a.275.275,0,0,0,.189.375" transform="translate(-218.992 -7.055)" fill="#000"></path>
      <path id="Path_58" data-name="Path 58" d="M118.1,149.127a11.282,11.282,0,0,1,.057-3.4.275.275,0,0,0-.272-.32H100.146a.261.261,0,0,0-.261.261v3.513a.261.261,0,0,0,.261.261h17.679a.275.275,0,0,0,.273-.312" transform="translate(-81.213 -118.223)" fill="#000"></path>
      <path id="Path_59" data-name="Path 59" d="M245.617,18.34a11.267,11.267,0,0,1,3.4-.03.275.275,0,0,0,.313-.273L249.325.261A.261.261,0,0,0,249.065,0h-3.512a.261.261,0,0,0-.261.261l.007,17.807a.275.275,0,0,0,.319.272" transform="translate(-199.439)" fill="#000"></path>
      <path id="Path_60" data-name="Path 60" d="M307.253,94.871a11.143,11.143,0,0,1,1.339,3.1.275.275,0,0,0,.37.183L325.054,91.6a.424.424,0,0,0,.232-.553l-1.2-2.949a.423.423,0,0,0-.552-.232l-16.145,6.6a.275.275,0,0,0-.13.4" transform="translate(-249.783 -71.417)" fill="#000"></path>
      <path id="Path_61" data-name="Path 61" d="M194.423,26.323a.275.275,0,0,0,.4.132,11.131,11.131,0,0,1,3.137-1.295.275.275,0,0,0,.188-.372l-6.718-16.45a.261.261,0,0,0-.341-.143l-3.1,1.266a.424.424,0,0,0-.232.553Z" transform="translate(-152.631 -6.648)" fill="#000"></path>
      <path id="Path_62" data-name="Path 62" d="M184.61,249.53c-3.255-.591-6.348-2.737-9.666-2.737-3.363,0-6.458,2.229-9.78,2.665-3.8.5-7.664-2.075-11.3-2.56-.09-.012-.18-.025-.27-.034h-.006a8.227,8.227,0,0,0-1.032-.071c-3.363,0-6.458,2.229-9.78,2.665l-.119.014a.2.2,0,0,0-.126.343A29.344,29.344,0,0,0,145,252.139a.266.266,0,0,0,.255.048c2.424-.811,4.79-2.057,7.307-2.057.138,0,.273.01.409.019l.043.006a45.045,45.045,0,0,1,4.684,1.4l.007,0a14.643,14.643,0,0,0,5.678,1.3.016.016,0,0,0,0-.005,9.937,9.937,0,0,0,1.782-.063c3.322-.436,6.417-2.665,9.78-2.665,2.482,0,4.837,1.2,7.229,2.055a.265.265,0,0,0,.259-.047,29.2,29.2,0,0,0,2.318-2.173.26.26,0,0,0-.14-.435" transform="translate(-115.845 -200.66)" fill="#000"></path>
      <path id="Path_63" data-name="Path 63" d="M205.129,282.707a11.554,11.554,0,0,0-3.776-.754c-3.363,0-6.458,2.229-9.78,2.666-4.3.564-8.66-2.694-12.6-2.666a12.277,12.277,0,0,0-4.151.889.263.263,0,0,0-.048.47,28.914,28.914,0,0,0,3.662,1.888l.04.018c.067.029.135.055.2.083.578.241,1.168.459,1.764.662a28.916,28.916,0,0,0,5.538,1.3,29.337,29.337,0,0,0,3.891.266c.158,0,.315-.009.473-.012a29.141,29.141,0,0,0,8-1.244l.531-.169a28.971,28.971,0,0,0,6.311-2.93.263.263,0,0,0-.055-.471" transform="translate(-142 -229.247)" fill="#000"></path>
      <path id="Path_64" data-name="Path 64" d="M168.645,215.556a11.819,11.819,0,0,1-3.12.4c-3.779-.084-7.273-2.888-11.06-2.888-3.363,0-6.458,2.229-9.78,2.665-3.763.495-7.276-1.861-11-2.507a9.242,9.242,0,0,0-1.155-.139c-.147-.008-.295-.019-.444-.019-3.363,0-6.458,2.229-9.78,2.665a12.581,12.581,0,0,1-4.8-.429.262.262,0,0,0-.3.372,29.215,29.215,0,0,0,1.933,3.225.266.266,0,0,0,.182.113,10.743,10.743,0,0,0,2.983.055c3.322-.436,6.417-2.665,9.78-2.665.138,0,.276.011.415.02l.046.007c2.19.472,4.367,1.361,6.553,2a13.71,13.71,0,0,0,3.744.7,9.927,9.927,0,0,0,1.846-.058c3.322-.436,6.417-2.665,9.78-2.665,3.787,0,7.281,2.8,11.06,2.888a9.7,9.7,0,0,0,1.273-.059.269.269,0,0,0,.191-.112,29.365,29.365,0,0,0,1.951-3.188.261.261,0,0,0-.294-.373" transform="translate(-95.27 -173.235)" fill="#000"></path>
      <path id="Path_65" data-name="Path 65" d="M110.907,184.4c3.322-.436,6.417-2.665,9.78-2.665a6.847,6.847,0,0,1,2.971.49.2.2,0,0,0,.223-.309,11.2,11.2,0,0,1-2.05-3.283.275.275,0,0,0-.222-.172c-.159-.019-.318-.034-.478-.043s-.3-.017-.444-.02c-3.363,0-6.458,2.229-9.78,2.665a15.874,15.874,0,0,1-6.961-1.069.262.262,0,0,0-.339.3,29,29,0,0,0,.841,3.081.269.269,0,0,0,.173.17,14.7,14.7,0,0,0,6.286.852" transform="translate(-84.235 -145.05)" fill="#000"></path>
      <path id="Path_66" data-name="Path 66" d="M5.685,371.579H2.471L1.8,373.363H0l3.191-8.121H4.964l3.191,8.121h-1.8Zm-.561-1.464L4.084,367.37l-1.052,2.745Z" transform="translate(0 -296.967)" fill="#000"></path>
      <path id="Path_67" data-name="Path 67" d="M91.363,365.242v8.121H89.716l-3.088-5.239v5.239H84.981v-8.121h1.647l3.088,5.239v-5.239Z" transform="translate(-69.095 -296.967)" fill="#000"></path>
      <path id="Path_68" data-name="Path 68" d="M142.548,371.9v1.464h-5.685v-8.121h5.627v1.464H138.51V368.4h3.214v1.464H138.51V371.9Z" transform="translate(-111.279 -296.967)" fill="#000"></path>
      <path id="Path_69" data-name="Path 69" d="M189.986,365.242l-2.436,8.121h-1.773l-1.8-5.547-1.8,5.547h-1.773l-2.436-8.121h1.8l1.533,5.994,1.773-5.994h1.807l1.773,5.994,1.533-5.994Z" transform="translate(-144.706 -296.967)" fill="#000"></path>
      <path id="Path_70" data-name="Path 70" d="M289.259,371.9v1.464h-5.685v-8.121H289.2v1.464h-3.98V368.4h3.214v1.464h-3.214V371.9Z" transform="translate(-230.565 -296.967)" fill="#000"></path>
      <path id="Path_71" data-name="Path 71" d="M330.372,371.579h-3.214l-.675,1.784h-1.8l3.191-8.121h1.773l3.191,8.121h-1.8Zm-.56-1.464-1.041-2.745-1.052,2.745Z" transform="translate(-263.993 -296.967)" fill="#000"></path>
      <path id="Path_72" data-name="Path 72" d="M386.742,370.367l2.185,3H386.9l-2.093-2.86h-1.453v2.86h-1.647v-8.121h3.729c1.6,0,3.042.446,3.042,2.63a2.241,2.241,0,0,1-1.738,2.494m-1.258-1.327c.8,0,1.35-.229,1.35-1.167s-.549-1.166-1.35-1.166h-2.128v2.333Z" transform="translate(-310.356 -296.968)" fill="#000"></path>
      <path id="Path_73" data-name="Path 73" d="M437.21,366.706h-2.516v6.657h-1.647v-6.657h-2.516v-1.464h6.68Z" transform="translate(-350.051 -296.967)" fill="#000"></path>
      <path id="Path_74" data-name="Path 74" d="M486.343,365.242v8.121H484.7v-3.454h-2.962v3.454h-1.647v-8.121h1.647v3.2H484.7v-3.2Z" transform="translate(-390.343 -296.967)" fill="#000"></path>
      <path id="Path_75" data-name="Path 75" d="M101.5,445.24H99.415v2.86H97.768v-8.121H101.5c1.6,0,3.042.446,3.042,2.631s-1.441,2.631-3.042,2.631m.046-1.464c.8,0,1.35-.229,1.35-1.167s-.549-1.167-1.35-1.167H99.415v2.333Z" transform="translate(-79.492 -357.733)" fill="#000"></path>
      <path id="Path_76" data-name="Path 76" d="M153.03,445.1l2.185,3H153.19l-2.093-2.86h-1.453v2.86H148v-8.121h3.729c1.6,0,3.042.446,3.042,2.631a2.241,2.241,0,0,1-1.738,2.493m-1.258-1.327c.8,0,1.35-.229,1.35-1.167s-.549-1.167-1.35-1.167h-2.128v2.333Z" transform="translate(-120.332 -357.733)" fill="#000"></path>
      <path id="Path_77" data-name="Path 77" d="M202.83,447.755a4.167,4.167,0,1,1,3.992-4.164,4,4,0,0,1-3.992,4.164m0-6.863a2.726,2.726,0,1,0,2.345,2.7,2.464,2.464,0,0,0-2.345-2.7" transform="translate(-161.669 -357.285)" fill="#000"></path>
      <path id="Path_78" data-name="Path 78" d="M259.036,445.847c0,1.819-.995,2.356-2.654,2.356a2.379,2.379,0,0,1-2.665-2.391h1.658a.883.883,0,0,0,1.006.938c.766,0,1.006-.412,1.006-.9v-5.868h1.647Z" transform="translate(-206.289 -357.733)" fill="#000"></path>
      <path id="Path_79" data-name="Path 79" d="M305.287,446.636V448.1H299.6v-8.121h5.627v1.464h-3.98v1.693h3.214V444.6H301.25v2.036Z" transform="translate(-243.598 -357.733)" fill="#000"></path>
      <path id="Path_80" data-name="Path 80" d="M348.836,445.147l1.35.789a3.644,3.644,0,0,1-3.18,1.819,4.177,4.177,0,0,1,0-8.327,3.644,3.644,0,0,1,3.18,1.819l-1.35.778a2.079,2.079,0,0,0-1.83-1.132c-1.338,0-2.2,1.213-2.2,2.7s.858,2.7,2.2,2.7a2.043,2.043,0,0,0,1.83-1.144" transform="translate(-279.015 -357.285)" fill="#000"></path>
      <path id="Path_81" data-name="Path 81" d="M398.053,441.443h-2.516V448.1H393.89v-6.657h-2.516v-1.464h6.68Z" transform="translate(-318.214 -357.733)" fill="#000"></path>
    </g>
  </g>
</svg>